<svg xmlns="http://www.w3.org/2000/svg" viewBox="0 0 29 29" fill="#FFFFFF">
    <path d="M21.6857 0H7.31427C3.28249 0 0 3.28249 0 7.31427V21.6826C0 25.7175 3.28249 28.9969 7.31427 28.9969H21.6826C25.7175 28.9969 28.9969 25.7144 28.9969 21.6826V7.31427C28.9969 3.27935 25.7144 0 21.6826 0H21.6857ZM14.5 21.9679C10.3836 21.9679 7.03211 18.6164 7.03211 14.5C7.03211 10.3836 10.3836 7.03211 14.5 7.03211C18.6164 7.03211 21.9679 10.3836 21.9679 14.5C21.9679 18.6164 18.6164 21.9679 14.5 21.9679ZM22.2093 8.57459C21.2343 8.57459 20.4411 7.78141 20.4411 6.80638C20.4411 5.83135 21.2343 5.03816 22.2093 5.03816C23.1843 5.03816 23.9775 5.83135 23.9775 6.80638C23.9775 7.78141 23.1843 8.57459 22.2093 8.57459ZM18.8139 14.5C18.8139 16.8796 16.8796 18.8139 14.5 18.8139C12.1204 18.8139 10.1861 16.8796 10.1861 14.5C10.1861 12.1204 12.1204 10.1892 14.5 10.1892C16.8796 10.1892 18.8139 12.1236 18.8139 14.5Z"/>
</svg>