<svg xmlns="http://www.w3.org/2000/svg" viewBox="0 0 28 31" fill="#FFFFFF">
    <path d="M26.6615 7.19653L27.3542 7.24542V13.5221L26.65 13.5974C24.9388 13.7233 23.2274 13.3558 21.7278 12.5406C21.0763 12.1986 20.4724 11.7765 19.9307 11.2845V21.3183C19.9329 23.2195 19.3585 25.0787 18.2798 26.6609C17.2012 28.2432 15.6669 29.4775 13.8707 30.2079C12.0745 30.9383 10.0971 31.132 8.18826 30.7645C6.27945 30.397 4.52495 29.4848 3.14645 28.1432C1.76796 26.8016 0.82735 25.0908 0.443469 23.227C0.059588 21.3632 0.249673 19.43 0.989699 17.6717C1.72972 15.9134 2.98648 14.4089 4.60116 13.3483C6.21584 12.2878 8.11597 11.7188 10.0615 11.7132C10.2731 11.7132 10.4867 11.7133 10.6984 11.7321L11.4007 11.7753V17.6647L10.5618 17.5669L10.4078 17.5462C10.3027 17.5301 10.1967 17.52 10.0903 17.5161C9.05793 17.5161 8.06781 17.9169 7.3378 18.6303C6.60779 19.3437 6.19768 20.3113 6.19768 21.3202C6.19768 22.3291 6.60779 23.2966 7.3378 24.01C8.06781 24.7234 9.05793 25.1242 10.0903 25.1242C11.1529 25.1188 12.175 24.7251 12.9555 24.0204C13.3341 23.6859 13.6375 23.2781 13.8465 22.823C14.0555 22.3679 14.1656 21.8754 14.1696 21.3765L14.2158 0.227783H19.921L19.9922 0.884038C20.1685 2.534 20.9334 4.07072 22.1528 5.22487C23.3722 6.37902 24.9683 7.07701 26.6615 7.19653Z"/>
</svg>