<svg xmlns="http://www.w3.org/2000/svg" viewBox="0 0 31 26" fill="#FFFFFF">
    <path d="M30.0027 2.66052C29.927 3.71695 29.3175 7.4125 28.706 11.4096L26.8015 23.2511C26.8015 23.2511 26.6482 24.9798 25.3533 25.2871C24.0585 25.5945 21.923 24.2327 21.5406 23.9311C21.2358 23.7044 15.8235 20.3104 13.8415 18.6509C13.3076 18.1976 12.698 17.2929 13.9191 16.2365C16.6621 13.7395 19.9371 10.6567 21.923 8.69557C22.8374 7.78897 23.7517 5.67805 19.941 8.24227L9.19596 15.4086C9.19596 15.4086 7.97682 16.1635 5.68997 15.4855C3.40313 14.8074 0.733845 13.9008 0.733845 13.9008C0.733845 13.9008 -1.09487 12.7695 2.03062 11.5633L19.7915 4.32199C21.5387 3.56712 27.4907 1.15464 27.4907 1.15464C27.4907 1.15464 30.2357 0.0963001 30.0027 2.66052Z"/>
</svg>