<svg xmlns="http://www.w3.org/2000/svg" width="38" height="27" viewBox="0 0 38 27">
    <path fill-rule="evenodd" clip-rule="evenodd" d="M2 13.125C2 13.125 8.5625 0 19.5 0C30.4375 0 37 13.125 37 13.125C37 13.125 30.4375 26.25 19.5 26.25C8.5625 26.25 2 13.125 2 13.125ZM5.95937 13.4094C5.90051 13.3149 5.84218 13.2201 5.78437 13.125L5.96375 12.8406C6.67688 11.725 7.72688 10.2441 9.07 8.78062C11.8306 5.76406 15.3875 3.28125 19.5 3.28125C23.6081 3.28125 27.1694 5.76406 29.9344 8.78062C31.1576 10.1262 32.2559 11.5804 33.2156 13.125C32.2514 14.6677 31.1519 16.1216 29.93 17.4694C27.1694 20.4859 23.6125 22.9688 19.5 22.9688C15.3919 22.9688 11.8306 20.4859 9.06563 17.4694C7.91649 16.207 6.87729 14.8487 5.95937 13.4094ZM26.0625 13.125C26.0621 14.5065 25.6257 15.8526 24.8156 16.9715C24.0054 18.0905 22.8628 18.9253 21.5506 19.357C20.2383 19.7886 18.8232 19.7951 17.507 19.3756C16.1908 18.9561 15.0405 18.1318 14.2201 17.0204C13.3997 15.9089 12.9509 14.5669 12.9378 13.1855C12.9247 11.8041 13.3478 10.4538 14.1469 9.32689C14.946 8.20002 16.0804 7.35407 17.3884 6.90956C18.6964 6.46504 20.1113 6.44464 21.4316 6.85125C20.9481 7.07002 20.5249 7.40279 20.1983 7.82101C19.8717 8.23924 19.6514 8.73044 19.5562 9.2525C19.4611 9.77456 19.494 10.3119 19.6522 10.8184C19.8103 11.325 20.0889 11.7856 20.4641 12.1609C20.8394 12.5361 21.3 12.8147 21.8066 12.9728C22.3131 13.131 22.8504 13.1639 23.3725 13.0688C23.8946 12.9737 24.3858 12.7533 24.804 12.4267C25.2222 12.1001 25.555 11.6769 25.7738 11.1934C25.9658 11.8193 26.0631 12.4703 26.0625 13.125Z"/>
    <path d="M2 2L36 25" stroke="#000" stroke-width="3" stroke-linecap="round"/>
</svg>