<svg xmlns="http://www.w3.org/2000/svg" viewBox="0 0 35 21" fill="#FFFFFF">
    <path d="M30.6221 14.5816C30.6221 14.5816 33.3248 17.3578 33.9933 18.6424C34.0064 18.661 34.0165 18.6815 34.0234 18.7033C34.2959 19.1779 34.3627 19.5499 34.229 19.8245C34.0034 20.2782 33.2395 20.506 32.9805 20.5251H28.2035C27.8709 20.5251 27.1789 20.4347 26.3365 19.8297C25.693 19.3621 25.0529 18.592 24.4328 17.8393C23.5068 16.7216 22.7062 15.7515 21.8956 15.7515C21.7932 15.7513 21.6915 15.769 21.5947 15.8037C20.9813 16.0054 20.2024 16.9145 20.2024 19.336C20.2024 20.094 19.6274 20.5251 19.2246 20.5251H17.0367C16.2913 20.5251 12.4102 20.2539 8.96874 16.4799C4.75173 11.8594 0.964281 2.59043 0.927509 2.50873C0.691838 1.90899 1.18658 1.58218 1.72144 1.58218H6.54518C7.19202 1.58218 7.40262 1.98896 7.5497 2.35401C7.72019 2.77296 8.35199 4.44874 9.38827 6.33138C11.0664 9.39437 12.0977 10.6408 12.9217 10.6408C13.0765 10.6412 13.2287 10.5993 13.3629 10.5191C14.4393 9.90371 14.2388 5.90548 14.1886 5.0815C14.1886 4.92157 14.1869 3.2962 13.6354 2.51046C13.2409 1.94724 12.569 1.7282 12.1628 1.64824C12.2715 1.48483 12.5021 1.23451 12.798 1.08675C13.5351 0.704309 14.8672 0.648682 16.1893 0.648682H16.9231C18.3571 0.669542 18.7282 0.765152 19.2497 0.902482C20.2993 1.16324 20.3194 1.87075 20.2275 4.28012C20.2007 4.96851 20.1723 5.74381 20.1723 6.65645C20.1723 6.85115 20.164 7.06844 20.164 7.28921C20.1322 8.52519 20.0904 9.91762 20.9295 10.4895C21.0383 10.56 21.164 10.5974 21.2922 10.5973C21.583 10.5973 22.4538 10.5973 24.8155 6.38179C25.8518 4.52001 26.6541 2.32446 26.7093 2.15932C26.7561 2.06718 26.8965 1.80817 27.067 1.70387C27.1882 1.63676 27.3241 1.60323 27.4614 1.60652H33.1359C33.7543 1.60652 34.1739 1.70387 34.2558 1.94724C34.3928 2.34184 34.229 3.54653 31.6383 7.19013C31.2021 7.79682 30.8193 8.3218 30.4833 8.78073C28.135 11.9863 28.135 12.1479 30.6221 14.5816Z"/>
</svg>