<svg xmlns="http://www.w3.org/2000/svg" viewBox="0 0 29 24" fill="#FFFFFF">
    <path d="M0.592773 9.28698V17.7499C0.592773 19.2449 1.14746 20.6787 2.1348 21.7358C3.12214 22.7929 4.46126 23.3868 5.85758 23.3868H23.4069C24.8032 23.3868 26.1424 22.7929 27.1297 21.7358C28.117 20.6787 28.6717 19.2449 28.6717 17.7499V9.28698L15.3518 15.7056C15.1255 15.8145 14.8803 15.8708 14.6322 15.8708C14.3842 15.8708 14.139 15.8145 13.9127 15.7056L0.592773 9.28698ZM0.722638 5.2284L14.6322 11.9326L28.5419 5.2284C28.2776 3.98179 27.6255 2.86837 26.6924 2.07081C25.7594 1.27326 24.6008 0.838939 23.4069 0.839111H5.85758C4.66365 0.838939 3.50513 1.27326 2.57209 2.07081C1.63904 2.86837 0.986893 3.98179 0.722638 5.2284Z"/>
</svg>