<svg xmlns="http://www.w3.org/2000/svg" viewBox="0 0 29 21" fill="#FFFFFF">
    <path d="M28.5477 5.12785C28.5477 5.12785 28.275 3.18122 27.4346 2.3247C26.3695 1.19825 25.1758 1.19305 24.6287 1.1273C20.7096 0.841796 14.8303 0.841797 14.8303 0.841797H14.8183C14.8183 0.841797 8.93888 0.841796 5.01986 1.1273C4.47274 1.19305 3.27903 1.19825 2.21395 2.3247C1.37355 3.18987 1.10085 5.12785 1.10085 5.12785C0.926861 6.64616 0.833539 8.17277 0.821289 9.70113V11.845C0.833457 13.3734 0.926779 14.9 1.10085 16.4183C1.10085 16.4183 1.37355 18.3684 2.21567 19.2232C3.28075 20.3479 4.68028 20.3133 5.30286 20.4344C7.5445 20.6507 14.8268 20.7182 14.8268 20.7182C14.8268 20.7182 20.7114 20.7096 24.6304 20.424C25.1775 20.3583 26.3712 20.3514 27.4363 19.2267C28.2767 18.3701 28.5494 16.4218 28.5494 16.4218C28.7235 14.9035 28.8168 13.3769 28.829 11.8485V9.70113C28.8161 8.17274 28.7222 6.64612 28.5477 5.12785ZM11.9317 14.444V6.50347L19.4988 10.4832L11.9317 14.444Z"/>
</svg>