<svg xmlns="http://www.w3.org/2000/svg" viewBox="0 0 121 73" fill="#0A3470">
    <path d="M70.1125 6.57549C70.1125 3.7724 67.8378 1.5 65.0318 1.5C64.0506 1.5 63.1343 1.77789 62.3576 2.25918C62.233 2.31599 62.1098 2.39866 61.9886 2.51086C61.6892 2.73492 61.4154 2.99121 61.1723 3.27459L0.645634 59.9067C-0.174911 60.6719 -0.219255 61.9566 0.546582 62.7762C1.3124 63.596 2.59839 63.6402 3.41892 62.8752L59.9512 10.1653V52.0726L48.7746 62.1792V34.9983C48.7746 32.1953 46.4999 29.9229 43.6939 29.9229C42.0333 29.9229 40.5587 30.7188 39.6317 31.9496L39.628 31.9533L34.1264 37.6234C33.3329 38.4162 33.3329 39.7017 34.1264 40.4945C34.92 41.2873 36.2069 41.2873 37.0005 40.4945L38.6133 38.8833V66.4664C38.6133 69.2695 40.888 71.5419 43.6939 71.5419C44.7078 71.5419 45.6523 71.2452 46.4452 70.734C46.5612 70.6688 46.6613 70.5997 46.7416 70.5276C47.0227 70.3168 47.2812 70.0775 47.5128 69.814L59.9512 58.3038V67.4814C59.9512 70.2845 62.2259 72.5569 65.0318 72.5569C66.0419 72.5569 66.9831 72.2625 67.7741 71.7548C67.8945 71.6877 67.9981 71.6164 68.0807 71.5419L68.0813 71.5414C68.3639 71.3292 68.6237 71.0882 68.8562 70.8228L81.2891 59.2944V66.4664C81.2891 69.2695 83.5638 71.5419 86.3697 71.5419C87.4765 71.5419 88.5006 71.1883 89.3351 70.5881C89.3637 70.5686 89.3907 70.5488 89.4159 70.5288C89.6608 70.3452 89.8886 70.14 90.0964 69.9161L97.8011 62.9761C98.6776 62.2756 98.8197 60.998 98.1185 60.1224C97.4174 59.2468 96.1385 59.1049 95.262 59.8053L91.4503 62.8516V49.8723L103.645 38.5652V66.4664C103.645 69.2695 105.919 71.5419 108.725 71.5419C110.203 71.5419 111.533 70.9116 112.462 69.9054L120.155 62.9761C121.031 62.2756 121.173 60.998 120.472 60.1224C119.771 59.2468 118.492 59.1049 117.616 59.8053L113.806 62.85V34.9983C113.806 32.1953 111.531 29.9229 108.725 29.9229C107.722 29.9229 106.787 30.2132 105.999 30.7144C105.893 30.7678 105.787 30.8398 105.683 30.9326C105.426 31.1251 105.188 31.3414 104.971 31.5782L91.4503 43.8357V34.9983C91.4503 32.1953 89.1756 29.9229 86.3697 29.9229C85.3633 29.9229 84.4252 30.2152 83.6359 30.7195C83.5347 30.7712 83.4345 30.8397 83.3357 30.9268C83.0765 31.1199 82.8363 31.3372 82.6185 31.5752L70.1125 42.884V6.57549ZM70.1125 63.1798V48.9007L81.2891 38.558V53.0475L70.1125 63.1798Z"/>
    <path d="M84.4321 0.316506C85.0857 -0.19243 86.0282 -0.0751045 86.5371 0.578559C89.1184 3.89391 92.8293 12.6117 86.5372 20.6933C86.0282 21.347 85.0858 21.4643 84.4321 20.9554C83.7784 20.4465 83.6611 19.504 84.17 18.8503C89.2585 12.3146 86.3308 5.19682 84.17 2.42158C83.6611 1.76791 83.7784 0.825441 84.4321 0.316506Z"/>
    <path d="M93.5786 0.316504C94.2322 -0.19243 95.1747 -0.075103 95.6836 0.578562C98.2649 3.89391 101.976 12.6117 95.6836 20.6933C95.1747 21.347 94.2322 21.4643 93.5786 20.9554C92.9249 20.4465 92.8076 19.504 93.3165 18.8504C98.405 12.3146 95.4773 5.19682 93.3165 2.42158C92.8076 1.76791 92.9249 0.825438 93.5786 0.316504Z"/>
    <path d="M101.707 0.316504C102.361 -0.19243 103.304 -0.075103 103.813 0.578562C106.394 3.89391 110.105 12.6117 103.813 20.6933C103.304 21.347 102.361 21.4643 101.707 20.9554C101.054 20.4465 100.936 19.504 101.445 18.8504C106.534 12.3146 103.606 5.19682 101.445 2.42158C100.936 1.76791 101.054 0.825438 101.707 0.316504Z"/>
</svg>