<svg xmlns="http://www.w3.org/2000/svg" viewBox="0 0 121 73" fill="#0A3470">
    <path d="M93.5786 0.316504C94.2322 -0.19243 95.1747 -0.075103 95.6836 0.578562C98.2649 3.89391 101.976 12.6117 95.6836 20.6933C95.1747 21.347 94.2322 21.4643 93.5786 20.9554C92.9249 20.4465 92.8076 19.504 93.3165 18.8504C98.405 12.3146 95.4773 5.19682 93.3165 2.42158C92.8076 1.76791 92.9249 0.825438 93.5786 0.316504ZM86.5371 0.578559C86.0282 -0.0751045 85.0857 -0.19243 84.4321 0.316506C83.7784 0.825441 83.6611 1.76791 84.17 2.42158C86.3308 5.19682 89.2585 12.3146 84.17 18.8503C83.6611 19.504 83.7784 20.4465 84.4321 20.9554C85.0858 21.4643 86.0282 21.347 86.5372 20.6933C92.8293 12.6117 89.1184 3.89391 86.5371 0.578559ZM65.0318 1.5C67.8378 1.5 70.1125 3.7724 70.1125 6.57549V42.884L82.6198 31.5741C82.8367 31.3371 83.0759 31.1208 83.334 30.9284C83.4339 30.84 83.5353 30.7707 83.6378 30.7186C84.4267 30.215 85.3641 29.9231 86.3697 29.9231C89.1756 29.9231 91.4503 32.1955 91.4503 34.9986V43.8357L104.973 31.5771C105.188 31.3413 105.426 31.1259 105.682 30.9341C105.787 30.8401 105.893 30.7673 106.001 30.7136C106.788 30.213 107.723 29.9231 108.725 29.9231C111.531 29.9231 113.806 32.1955 113.806 34.9986V62.8502L117.616 59.8055C118.492 59.1051 119.771 59.247 120.472 60.1227C121.173 60.9983 121.031 62.2759 120.155 62.9763L112.462 69.9057C111.533 70.9118 110.203 71.5421 108.725 71.5421C105.919 71.5421 103.645 69.2697 103.645 66.4666V38.5652L91.4503 49.8723V62.8518L95.262 59.8055C96.1385 59.1051 97.4174 59.247 98.1185 60.1227C98.8197 60.9983 98.6776 62.2759 97.8011 62.9763L90.0964 69.9163C89.8886 70.1403 89.6608 70.3454 89.4159 70.529C89.4048 70.5379 89.3933 70.5467 89.3814 70.5554C89.3665 70.5665 89.3511 70.5775 89.3351 70.5883C88.5006 71.1886 87.4765 71.5421 86.3697 71.5421C83.5638 71.5421 81.2891 69.2697 81.2891 66.4666V59.2944L68.8562 70.8228C68.6237 71.0882 68.3639 71.3292 68.0813 71.5414L68.0807 71.5419C67.9981 71.6164 67.8945 71.6876 67.7741 71.7548C66.9831 72.2625 66.0419 72.5569 65.0318 72.5569C62.2259 72.5569 59.9512 70.2845 59.9512 67.4814V58.3038L47.514 69.813C47.2816 70.0775 47.0222 70.3177 46.7399 70.5292C46.6605 70.6001 46.5621 70.6681 46.4481 70.7324C45.6546 71.2447 44.709 71.5421 43.6939 71.5421C40.888 71.5421 38.6133 69.2697 38.6133 66.4666V38.8833L37.0005 40.4945C36.2069 41.2873 34.92 41.2873 34.1264 40.4945C33.3329 39.7017 33.3329 38.4162 34.1264 37.6234L39.628 31.9533L39.6324 31.9489C40.5595 30.7186 42.0337 29.9231 43.6939 29.9231C46.4999 29.9231 48.7746 32.1955 48.7746 34.9986V62.1792L59.9512 52.0726V10.1653L3.41892 62.8752C2.59839 63.6402 1.3124 63.596 0.546582 62.7762C-0.219255 61.9566 -0.174911 60.6719 0.645634 59.9067L61.1723 3.27458C61.4154 2.99121 61.6892 2.73492 61.9886 2.51087C62.1098 2.39866 62.233 2.31599 62.3576 2.25917C63.1343 1.77788 64.0506 1.5 65.0318 1.5ZM70.1125 48.9007V63.1798L81.2891 53.0475V38.558L70.1125 48.9007ZM103.813 0.578562C103.304 -0.075103 102.361 -0.19243 101.707 0.316504C101.054 0.825438 100.936 1.76791 101.445 2.42158C103.606 5.19682 106.534 12.3146 101.445 18.8504C100.936 19.504 101.054 20.4465 101.707 20.9554C102.361 21.4643 103.304 21.347 103.813 20.6933C110.105 12.6117 106.394 3.89391 103.813 0.578562Z"/>
</svg>