<svg xmlns="http://www.w3.org/2000/svg" viewBox="0 0 29 28">
    <path d="M22.8856 20.0324L29 25.9008L26.98 27.84L20.867 21.9702C18.5925 23.7206 15.7634 24.6727 12.8483 24.6687C5.75603 24.6687 0 19.1429 0 12.3344C0 5.52579 5.75603 0 12.8483 0C19.9405 0 25.6966 5.52579 25.6966 12.3344C25.7007 15.1329 24.709 17.8488 22.8856 20.0324ZM20.0219 19.0155C21.8337 17.2268 22.8455 14.8292 22.8414 12.3344C22.8414 7.03469 18.3688 2.74097 12.8483 2.74097C7.3278 2.74097 2.85517 7.03469 2.85517 12.3344C2.85517 17.634 7.3278 21.9277 12.8483 21.9277C15.4471 21.9317 17.9446 20.9603 19.8078 19.221L20.0219 19.0155Z"/>
</svg>