<svg xmlns="http://www.w3.org/2000/svg">
    <symbol id="closeButton" viewBox="0 0 20 20">
        <path d="M2.06514 19.4873L0.0859375 17.5636L8.00274 9.86867L0.0859375 2.17373L2.06514 0.25L9.98195 7.94493L17.8988 0.25L19.878 2.17373L11.9611 9.86867L19.878 17.5636L17.8988 19.4873L9.98195 11.7924L2.06514 19.4873Z" />
    </symbol>
    <symbol id="instagram" viewBox="0 0 29 29">
        <path d="M21.6857 0H7.31427C3.28249 0 0 3.28249 0 7.31427V21.6826C0 25.7175 3.28249 28.9969 7.31427 28.9969H21.6826C25.7175 28.9969 28.9969 25.7144 28.9969 21.6826V7.31427C28.9969 3.27935 25.7144 0 21.6826 0H21.6857ZM14.5 21.9679C10.3836 21.9679 7.03211 18.6164 7.03211 14.5C7.03211 10.3836 10.3836 7.03211 14.5 7.03211C18.6164 7.03211 21.9679 10.3836 21.9679 14.5C21.9679 18.6164 18.6164 21.9679 14.5 21.9679ZM22.2093 8.57459C21.2343 8.57459 20.4411 7.78141 20.4411 6.80638C20.4411 5.83135 21.2343 5.03816 22.2093 5.03816C23.1843 5.03816 23.9775 5.83135 23.9775 6.80638C23.9775 7.78141 23.1843 8.57459 22.2093 8.57459ZM18.8139 14.5C18.8139 16.8796 16.8796 18.8139 14.5 18.8139C12.1204 18.8139 10.1861 16.8796 10.1861 14.5C10.1861 12.1204 12.1204 10.1892 14.5 10.1892C16.8796 10.1892 18.8139 12.1236 18.8139 14.5Z" />
    </symbol>
    <symbol id="vk" viewBox="0 0 35 21">
        <path d="M30.6221 14.5816C30.6221 14.5816 33.3248 17.3578 33.9933 18.6424C34.0064 18.661 34.0165 18.6815 34.0234 18.7033C34.2959 19.1779 34.3627 19.5499 34.229 19.8245C34.0034 20.2782 33.2395 20.506 32.9805 20.5251H28.2035C27.8709 20.5251 27.1789 20.4347 26.3365 19.8297C25.693 19.3621 25.0529 18.592 24.4328 17.8393C23.5068 16.7216 22.7062 15.7515 21.8956 15.7515C21.7932 15.7513 21.6915 15.769 21.5947 15.8037C20.9813 16.0054 20.2024 16.9145 20.2024 19.336C20.2024 20.094 19.6274 20.5251 19.2246 20.5251H17.0367C16.2913 20.5251 12.4102 20.2539 8.96874 16.4799C4.75173 11.8594 0.964281 2.59043 0.927509 2.50873C0.691838 1.90899 1.18658 1.58218 1.72144 1.58218H6.54518C7.19202 1.58218 7.40262 1.98896 7.5497 2.35401C7.72019 2.77296 8.35199 4.44874 9.38827 6.33138C11.0664 9.39437 12.0977 10.6408 12.9217 10.6408C13.0765 10.6412 13.2287 10.5993 13.3629 10.5191C14.4393 9.90371 14.2388 5.90548 14.1886 5.0815C14.1886 4.92157 14.1869 3.2962 13.6354 2.51046C13.2409 1.94724 12.569 1.7282 12.1628 1.64824C12.2715 1.48483 12.5021 1.23451 12.798 1.08675C13.5351 0.704309 14.8672 0.648682 16.1893 0.648682H16.9231C18.3571 0.669542 18.7282 0.765152 19.2497 0.902482C20.2993 1.16324 20.3194 1.87075 20.2275 4.28012C20.2007 4.96851 20.1723 5.74381 20.1723 6.65645C20.1723 6.85115 20.164 7.06844 20.164 7.28921C20.1322 8.52519 20.0904 9.91762 20.9295 10.4895C21.0383 10.56 21.164 10.5974 21.2922 10.5973C21.583 10.5973 22.4538 10.5973 24.8155 6.38179C25.8518 4.52001 26.6541 2.32446 26.7093 2.15932C26.7561 2.06718 26.8965 1.80817 27.067 1.70387C27.1882 1.63676 27.3241 1.60323 27.4614 1.60652H33.1359C33.7543 1.60652 34.1739 1.70387 34.2558 1.94724C34.3928 2.34184 34.229 3.54653 31.6383 7.19013C31.2021 7.79682 30.8193 8.3218 30.4833 8.78073C28.135 11.9863 28.135 12.1479 30.6221 14.5816Z" />
    </symbol>
    <symbol id="youtube" viewBox="0 0 29 21">
        <path d="M28.5477 5.12785C28.5477 5.12785 28.275 3.18122 27.4346 2.3247C26.3695 1.19825 25.1758 1.19305 24.6287 1.1273C20.7096 0.841796 14.8303 0.841797 14.8303 0.841797H14.8183C14.8183 0.841797 8.93888 0.841796 5.01986 1.1273C4.47274 1.19305 3.27903 1.19825 2.21395 2.3247C1.37355 3.18987 1.10085 5.12785 1.10085 5.12785C0.926861 6.64616 0.833539 8.17277 0.821289 9.70113V11.845C0.833457 13.3734 0.926779 14.9 1.10085 16.4183C1.10085 16.4183 1.37355 18.3684 2.21567 19.2232C3.28075 20.3479 4.68028 20.3133 5.30286 20.4344C7.5445 20.6507 14.8268 20.7182 14.8268 20.7182C14.8268 20.7182 20.7114 20.7096 24.6304 20.424C25.1775 20.3583 26.3712 20.3514 27.4363 19.2267C28.2767 18.3701 28.5494 16.4218 28.5494 16.4218C28.7235 14.9035 28.8168 13.3769 28.829 11.8485V9.70113C28.8161 8.17274 28.7222 6.64612 28.5477 5.12785ZM11.9317 14.444V6.50347L19.4988 10.4832L11.9317 14.444Z" />
    </symbol>
    <symbol id="facebook" viewBox="0 0 19 38">
        <path d="M12.5558 10.4728V14.8134H18.7063L17.7285 21.5037H12.5558V37.7526H5.62474V21.5037H-0.00585938V14.8134H5.62474V9.7128C5.62474 3.91169 8.93629 0.710205 14.0014 0.710205C15.6649 0.733666 17.3246 0.884253 18.9671 1.16076V6.85475H16.1705C13.4131 6.85815 12.5558 8.64167 12.5558 10.4728Z" />
    </symbol>
    <symbol id="telegram" viewBox="0 0 31 26">
        <path d="M30.0027 2.66052C29.927 3.71695 29.3175 7.4125 28.706 11.4096L26.8015 23.2511C26.8015 23.2511 26.6482 24.9798 25.3533 25.2871C24.0585 25.5945 21.923 24.2327 21.5406 23.9311C21.2358 23.7044 15.8235 20.3104 13.8415 18.6509C13.3076 18.1976 12.698 17.2929 13.9191 16.2365C16.6621 13.7395 19.9371 10.6567 21.923 8.69557C22.8374 7.78897 23.7517 5.67805 19.941 8.24227L9.19596 15.4086C9.19596 15.4086 7.97682 16.1635 5.68997 15.4855C3.40313 14.8074 0.733845 13.9008 0.733845 13.9008C0.733845 13.9008 -1.09487 12.7695 2.03062 11.5633L19.7915 4.32199C21.5387 3.56712 27.4907 1.15464 27.4907 1.15464C27.4907 1.15464 30.2357 0.0963001 30.0027 2.66052Z" />
    </symbol>
    <symbol id="tiktok" viewBox="0 0 28 31">
        <path d="M26.6615 7.19653L27.3542 7.24542V13.5221L26.65 13.5974C24.9388 13.7233 23.2274 13.3558 21.7278 12.5406C21.0763 12.1986 20.4724 11.7765 19.9307 11.2845V21.3183C19.9329 23.2195 19.3585 25.0787 18.2798 26.6609C17.2012 28.2432 15.6669 29.4775 13.8707 30.2079C12.0745 30.9383 10.0971 31.132 8.18826 30.7645C6.27945 30.397 4.52495 29.4848 3.14645 28.1432C1.76796 26.8016 0.82735 25.0908 0.443469 23.227C0.059588 21.3632 0.249673 19.43 0.989699 17.6717C1.72972 15.9134 2.98648 14.4089 4.60116 13.3483C6.21584 12.2878 8.11597 11.7188 10.0615 11.7132C10.2731 11.7132 10.4867 11.7133 10.6984 11.7321L11.4007 11.7753V17.6647L10.5618 17.5669L10.4078 17.5462C10.3027 17.5301 10.1967 17.52 10.0903 17.5161C9.05793 17.5161 8.06781 17.9169 7.3378 18.6303C6.60779 19.3437 6.19768 20.3113 6.19768 21.3202C6.19768 22.3291 6.60779 23.2966 7.3378 24.01C8.06781 24.7234 9.05793 25.1242 10.0903 25.1242C11.1529 25.1188 12.175 24.7251 12.9555 24.0204C13.3341 23.6859 13.6375 23.2781 13.8465 22.823C14.0555 22.3679 14.1656 21.8754 14.1696 21.3765L14.2158 0.227783H19.921L19.9922 0.884038C20.1685 2.534 20.9334 4.07072 22.1528 5.22487C23.3722 6.37902 24.9683 7.07701 26.6615 7.19653Z" />
    </symbol>
    <symbol id="webmail" viewBox="0 0 29 24">
        <path d="M0.592773 9.28698V17.7499C0.592773 19.2449 1.14746 20.6787 2.1348 21.7358C3.12214 22.7929 4.46126 23.3868 5.85758 23.3868H23.4069C24.8032 23.3868 26.1424 22.7929 27.1297 21.7358C28.117 20.6787 28.6717 19.2449 28.6717 17.7499V9.28698L15.3518 15.7056C15.1255 15.8145 14.8803 15.8708 14.6322 15.8708C14.3842 15.8708 14.139 15.8145 13.9127 15.7056L0.592773 9.28698ZM0.722638 5.2284L14.6322 11.9326L28.5419 5.2284C28.2776 3.98179 27.6255 2.86837 26.6924 2.07081C25.7594 1.27326 24.6008 0.838939 23.4069 0.839111H5.85758C4.66365 0.838939 3.50513 1.27326 2.57209 2.07081C1.63904 2.86837 0.986893 3.98179 0.722638 5.2284Z" />
    </symbol>
    <symbol id="login" viewBox="0 0 16 21">
        <path d="M0 21C0 18.8783 0.842855 16.8434 2.34315 15.3431C3.84344 13.8429 5.87827 13 8 13C10.1217 13 12.1566 13.8429 13.6569 15.3431C15.1571 16.8434 16 18.8783 16 21H0ZM8 12C4.685 12 2 9.315 2 6C2 2.685 4.685 0 8 0C11.315 0 14 2.685 14 6C14 9.315 11.315 12 8 12Z" />
    </symbol>
    <symbol id="arrowDown" viewBox="0 0 9 5" fill="none" width="10" height="6">
        <path d="M8 1L4.5 4L1 1" stroke-width="2" stroke-linecap="round" stroke-linejoin="round"/>
    </symbol>
    <symbol id="burger" viewBox="0 0 26 18">
        <path d="M0.25 17.5H25.75V14.6667H0.25V17.5ZM0.25 10.4167H25.75V7.58333H0.25V10.4167ZM0.25 0.5V3.33333H25.75V0.5H0.25Z" />
    </symbol>
    <symbol id="visuallyImpaired" viewBox="0 0 35 27">
        <path d="M0 13.125C0 13.125 6.5625 0 17.5 0C28.4375 0 35 13.125 35 13.125C35 13.125 28.4375 26.25 17.5 26.25C6.5625 26.25 0 13.125 0 13.125ZM3.95937 13.4094C3.90051 13.3149 3.84218 13.2201 3.78437 13.125L3.96375 12.8406C4.67688 11.725 5.72688 10.2441 7.07 8.78062C9.83063 5.76406 13.3875 3.28125 17.5 3.28125C21.6081 3.28125 25.1694 5.76406 27.9344 8.78062C29.1576 10.1262 30.2559 11.5804 31.2156 13.125C30.2514 14.6677 29.1519 16.1216 27.93 17.4694C25.1694 20.4859 21.6125 22.9688 17.5 22.9688C13.3919 22.9688 9.83063 20.4859 7.06563 17.4694C5.91649 16.207 4.87729 14.8487 3.95937 13.4094ZM24.0625 13.125C24.0621 14.5065 23.6257 15.8526 22.8156 16.9715C22.0054 18.0905 20.8628 18.9253 19.5506 19.357C18.2383 19.7886 16.8232 19.7951 15.507 19.3756C14.1908 18.9561 13.0405 18.1318 12.2201 17.0204C11.3997 15.9089 10.9509 14.5669 10.9378 13.1855C10.9247 11.8041 11.3478 10.4538 12.1469 9.32689C12.946 8.20002 14.0804 7.35407 15.3884 6.90956C16.6964 6.46504 18.1113 6.44464 19.4316 6.85125C18.9481 7.07002 18.5249 7.40279 18.1983 7.82101C17.8717 8.23924 17.6514 8.73044 17.5562 9.2525C17.4611 9.77456 17.494 10.3119 17.6522 10.8184C17.8103 11.325 18.0889 11.7856 18.4641 12.1609C18.8394 12.5361 19.3 12.8147 19.8066 12.9728C20.3131 13.131 20.8504 13.1639 21.3725 13.0688C21.8946 12.9737 22.3858 12.7533 22.804 12.4267C23.2222 12.1001 23.555 11.6769 23.7738 11.1934C23.9658 11.8193 24.0631 12.4703 24.0625 13.125Z" fill-rule="evenodd" />
    </symbol>
    <symbol id="search" viewBox="0 0 29 28">
        <path d="M22.8856 20.0324L29 25.9008L26.98 27.84L20.867 21.9702C18.5925 23.7206 15.7634 24.6727 12.8483 24.6687C5.75603 24.6687 0 19.1429 0 12.3344C0 5.52579 5.75603 0 12.8483 0C19.9405 0 25.6966 5.52579 25.6966 12.3344C25.7007 15.1329 24.709 17.8488 22.8856 20.0324ZM20.0219 19.0155C21.8337 17.2268 22.8455 14.8292 22.8414 12.3344C22.8414 7.03469 18.3688 2.74097 12.8483 2.74097C7.3278 2.74097 2.85517 7.03469 2.85517 12.3344C2.85517 17.634 7.3278 21.9277 12.8483 21.9277C15.4471 21.9317 17.9446 20.9603 19.8078 19.221L20.0219 19.0155Z" />
    </symbol>
    <symbol id="trinagleUp" viewBox="0 0 19 20">
        <path d="M18.0083 10.7935L9.52968 15.55L2.06063 19.7404C1.55622 20.0235 0.911029 19.8556 0.619675 19.3651C0.527075 19.2093 0.478516 19.0326 0.478516 18.8526V1.48702C0.478516 1.11356 0.790196 0.811066 1.17415 0.811066C1.29611 0.811066 1.41619 0.842156 1.52197 0.901778L9.52968 5.39425L18.0083 10.1508C18.1909 10.2532 18.2537 10.4804 18.148 10.6578C18.1145 10.7141 18.0663 10.7609 18.0083 10.7935Z" />
    </symbol>
    <symbol id="mapPin" viewBox="0 0 16 22">
        <path d="M13.2626 14.1846L7.76973 21.3918L2.2769 14.1846C1.29411 13.1261 0.624338 11.8832 0.267573 10.4556C-0.0891911 9.02813 -0.0891911 7.60062 0.267573 6.17311C0.624338 4.7456 1.29411 3.49566 2.2769 2.42329C3.03082 1.62945 3.88907 1.02711 4.85166 0.616267C5.81425 0.205422 6.78694 0 7.76973 0C8.75251 0 9.7252 0.205422 10.6878 0.616267C11.6504 1.02711 12.5086 1.62945 13.2626 2.42329C14.2453 3.49566 14.9151 4.7456 15.2719 6.17311C15.6286 7.60062 15.6286 9.02813 15.2719 10.4556C14.9151 11.8832 14.2453 13.1261 13.2626 14.1846ZM7.76738 11.8829C9.60642 11.8829 11.0973 10.2866 11.0973 8.31743C11.0973 6.34827 9.60642 4.75195 7.76738 4.75195C5.92834 4.75195 4.4375 6.34827 4.4375 8.31743C4.4375 10.2866 5.92834 11.8829 7.76738 11.8829Z" />
    </symbol>
    
    <symbol id="" viewBox="">

    </symbol>
</svg>