<svg xmlns="http://www.w3.org/2000/svg" viewBox="0 0 35 27">
    <path d="M0 13.125C0 13.125 6.5625 0 17.5 0C28.4375 0 35 13.125 35 13.125C35 13.125 28.4375 26.25 17.5 26.25C6.5625 26.25 0 13.125 0 13.125ZM3.95937 13.4094C3.90051 13.3149 3.84218 13.2201 3.78437 13.125L3.96375 12.8406C4.67688 11.725 5.72688 10.2441 7.07 8.78062C9.83063 5.76406 13.3875 3.28125 17.5 3.28125C21.6081 3.28125 25.1694 5.76406 27.9344 8.78062C29.1576 10.1262 30.2559 11.5804 31.2156 13.125C30.2514 14.6677 29.1519 16.1216 27.93 17.4694C25.1694 20.4859 21.6125 22.9688 17.5 22.9688C13.3919 22.9688 9.83063 20.4859 7.06563 17.4694C5.91649 16.207 4.87729 14.8487 3.95937 13.4094ZM24.0625 13.125C24.0621 14.5065 23.6257 15.8526 22.8156 16.9715C22.0054 18.0905 20.8628 18.9253 19.5506 19.357C18.2383 19.7886 16.8232 19.7951 15.507 19.3756C14.1908 18.9561 13.0405 18.1318 12.2201 17.0204C11.3997 15.9089 10.9509 14.5669 10.9378 13.1855C10.9247 11.8041 11.3478 10.4538 12.1469 9.32689C12.946 8.20002 14.0804 7.35407 15.3884 6.90956C16.6964 6.46504 18.1113 6.44464 19.4316 6.85125C18.9481 7.07002 18.5249 7.40279 18.1983 7.82101C17.8717 8.23924 17.6514 8.73044 17.5562 9.2525C17.4611 9.77456 17.494 10.3119 17.6522 10.8184C17.8103 11.325 18.0889 11.7856 18.4641 12.1609C18.8394 12.5361 19.3 12.8147 19.8066 12.9728C20.3131 13.131 20.8504 13.1639 21.3725 13.0688C21.8946 12.9737 22.3858 12.7533 22.804 12.4267C23.2222 12.1001 23.555 11.6769 23.7738 11.1934C23.9658 11.8193 24.0631 12.4703 24.0625 13.125Z" fill-rule="evenodd"/>
</svg>